# xmcd
#
# Track frame offsets:
# 150
# 16723
# 35638
# 54558
# 74851
# 91591
# 111952
# 134187
# 152994
# 173682
# 190222
# 208856
#
# Disc length: 2997 seconds
#
#
# Revision: 0
# Processed by: cddbd v1.5.2PL0 Copyright (c) Steve Scherf et al.
# Submitted via: FreeRIP 2.941 
#
DISCID=af0bb30c
DTITLE=Tommy Castro - Tommy Castro - 2009 - Hard Believer
DYEAR=2009
DGENRE=Blues
TTITLE0=Tommy Castro - Definition Insanity
TTITLE1=Tommy Castro - It Is What It Is
TTITLE2=Tommy Castro - Hard Believer
TTITLE3=Tommy Castro - Monkey's Paradise
TTITLE4=Tommy Castro - Ninety-Nine And One Half
TTITLE5=Tommy Castro - Backup Plan
TTITLE6=Tommy Castro - Gotta Serve Somebody
TTITLE7=Tommy Castro - Trimmin' Fat
TTITLE8=Tommy Castro - Make It Back To Memphis
TTITLE9=Tommy Castro - Victims Of The Darkness
TTITLE10=Tommy Castro - My Babe
TTITLE11=Tommy Castro - The Trouble With Soul
EXTD=
EXTT0=
EXTT1=
EXTT2=
EXTT3=
EXTT4=
EXTT5=
EXTT6=
EXTT7=
EXTT8=
EXTT9=
EXTT10=
EXTT11=
PLAYORDER=
